<svg id="Layer_1" data-name="Layer 1" xmlns="http://www.w3.org/2000/svg" viewBox="0 0 830.66 327.84"><defs><style>.cls-1{opacity:0.24;}.cls-2{opacity:0.47;}.cls-3{fill:#1d1d1b;}.cls-4{fill:#97c12c;}.cls-5{fill:#539f33;}.cls-6{fill:#d7e5b3;stroke:#d7e5b3;stroke-miterlimit:10;}.cls-7{fill:#fff;}</style></defs><g class="cls-1"><path class="cls-2" d="M860.63,609.92H125.68A55.62,55.62,0,0,1,93.24,595,58,58,0,0,1,76.1,561.52v18.82c.66,5,3.46,22,17.14,35.93a53.72,53.72,0,0,0,32.44,16H857.17a53.63,53.63,0,0,0,32.44-16c13.71-13.93,16.51-31,17.14-35.93v-20.5a62.22,62.22,0,0,1-16.07,32.86A60,60,0,0,1,860.63,609.92Z" transform="translate(-76.1 -304.38)"/></g><path class="cls-3" d="M892.78,324.25c-17.19-19.35-41.07-19.85-45.43-19.87H131.13a56.82,56.82,0,0,0-38,16,59,59,0,0,0-17,35.3V563.78a57.9,57.9,0,0,0,17.15,33.51,55.56,55.56,0,0,0,32.43,14.88H860.61a60.05,60.05,0,0,0,30.08-17.23,62.5,62.5,0,0,0,16.07-32.83V352.8A61,61,0,0,0,892.78,324.25Zm3.67,231.2c-.82,5-2.11,19.49-14,31.59-11.3,11.46-25.88,14.15-31,15.27H134.75c-4.57-.44-20.43-1.64-33.1-13.19C88.29,577,87,561.35,86.4,557V362.23c.5-4.36,1.52-20.55,15.3-33.48,15-14.06,34.24-14.42,38.37-14.5H838.52c4.25,0,28.1-1.78,44.87,16.33,9.29,10,11.88,23.29,13.06,29Z" transform="translate(-76.1 -304.38)"/><path class="cls-4" d="M140.07,314.25H838.52c4.25,0,26.56-2.64,42.82,13.72,12.93,13,13.93,26.27,15.11,31.25V525.37a48,48,0,0,1-15.67,26.9c-11.29,10-24.23,13.14-29.33,14.12H134.75c-4.57-.39-19-2.09-31.62-12.2C89.77,543.54,87,530.53,86.4,526.75V356.25c.5-3.82,2.84-17.61,16.62-28.92C118,315,135.94,314.32,140.07,314.25Z" transform="translate(-76.1 -304.38)"/><path class="cls-5" d="M880.78,551.12a61.86,61.86,0,0,1-29.33,14.4H134.75c-4.57-.39-19-2.13-31.62-12.44a46,46,0,0,1-16.73-28v36.74a46.9,46.9,0,0,0,16.71,28.58c12.67,10.39,27.07,11.78,31.64,12.17h716.7c5.1-1,18.56-3.35,29.86-13.67a49.26,49.26,0,0,0,15.14-28.49V523.68A49.17,49.17,0,0,1,880.78,551.12Z" transform="translate(-76.1 -304.38)"/><path class="cls-6" d="M868.18,370.2c-2-10.74-10.89-19.47-22.37-21.71H137c-11.48,2.24-20.39,11-22.37,21.71-2.37,12.91,5.68,26.5,19.34,31.09H848.85C862.5,396.7,870.55,383.11,868.18,370.2Z" transform="translate(-76.1 -304.38)"/><g class="cls-1"><path d="M380.48,443.72a44.53,44.53,0,0,1-2.68,16,39.11,39.11,0,0,1-7.34,12.19,44.42,44.42,0,0,1-10.95,8.84,67.86,67.86,0,0,1-13.44,5.9A88.13,88.13,0,0,1,331.25,490a118.18,118.18,0,0,1-15.05,1.17v43.35h-43q0-21.32.09-42.42t.27-42.61q.19-11.36.1-22.7t.46-22.88a170.17,170.17,0,0,1,23.64-5.31,165.89,165.89,0,0,1,24.39-1.76A87.42,87.42,0,0,1,336.33,398,68.34,68.34,0,0,1,350,401.67a60.78,60.78,0,0,1,12.1,6.28,41.18,41.18,0,0,1,16.07,20.84A44.54,44.54,0,0,1,380.48,443.72Zm-38.65-16.67c-4.64-7.51-16.44-10.63-27.47-5.49V460c1,.07,16.51.86,24.72-11C339.67,448.18,347.6,436.38,341.83,427.05Z" transform="translate(-76.1 -304.38)"/><path d="M466.74,480.19l-3.88,41.3-77.08,7.2c2.75-22,4.38-44.53,2.75-65.93s-1.16-42.6-.48-64.25h48Q434,418.88,432,439.21t-2.77,41c2.9.12,5.76.19,8.59.19h8.59c3.45,0,6.84,0,10.16-.1S463.29,480.19,466.74,480.19Z" transform="translate(-76.1 -304.38)"/><path d="M594.56,526l-52.82,5.22-5.55-21-15.8-.68-5.49,22-51.48-4.92L500.17,402.6l51.36-2.6Zm-61.69-44.27-7-32.38L519,481.68Z" transform="translate(-76.1 -304.38)"/><path d="M704.44,399.58l-57.69,79.67v57.69h-44L608.3,471l-24.73-65.93,38.46-5.5L630.27,449l33-52.19Z" transform="translate(-76.1 -304.38)"/><path d="M380.48,443.72a44.53,44.53,0,0,1-2.68,16,39.11,39.11,0,0,1-7.34,12.19,44.42,44.42,0,0,1-10.95,8.84,67.86,67.86,0,0,1-13.44,5.9A88.13,88.13,0,0,1,331.25,490a118.18,118.18,0,0,1-15.05,1.17v43.35h-43q0-21.32.09-42.42t.27-42.61q.19-11.36.1-22.7t.46-22.88a170.17,170.17,0,0,1,23.64-5.31,165.89,165.89,0,0,1,24.39-1.76A87.42,87.42,0,0,1,336.33,398,68.34,68.34,0,0,1,350,401.67a60.78,60.78,0,0,1,12.1,6.28,41.18,41.18,0,0,1,16.07,20.84A44.54,44.54,0,0,1,380.48,443.72Zm-38.65-16.67c-4.64-7.51-16.44-10.63-27.47-5.49V460c1,.07,16.51.86,24.72-11C339.67,448.18,347.6,436.38,341.83,427.05Z" transform="translate(-76.1 -304.38)"/><path d="M466.74,480.19l-3.88,41.3-77.08,7.2c2.75-22,4.38-44.53,2.75-65.93s-1.16-42.6-.48-64.25h48Q434,418.88,432,439.21t-2.77,41c2.9.12,5.76.19,8.59.19h8.59c3.45,0,6.84,0,10.16-.1S463.29,480.19,466.74,480.19Z" transform="translate(-76.1 -304.38)"/><path d="M594.56,526l-52.82,5.22-5.55-21-15.8-.68-5.49,22-51.48-4.92L500.17,402.6l51.36-2.6Zm-61.69-44.27-7-32.38L519,481.68Z" transform="translate(-76.1 -304.38)"/><path d="M704.44,399.58l-57.69,79.67v57.69h-44L608.3,471l-24.73-65.93,38.46-5.5L630.27,449l33-52.19Z" transform="translate(-76.1 -304.38)"/><path d="M322.38,540.7H267v-6.18q0-21.33.1-42.45t.27-42.63c.13-7.53.16-15.12.1-22.6-.06-7.65.09-15.46.47-23.23l.21-4.37,4.19-1.25a177.57,177.57,0,0,1,24.5-5.5,171.89,171.89,0,0,1,25.3-1.84,94.1,94.1,0,0,1,15.21,1.25,75.39,75.39,0,0,1,14.85,4,67.42,67.42,0,0,1,13.34,6.93A47.44,47.44,0,0,1,384,426.73a54.95,54.95,0,0,1-.38,35.21A45.43,45.43,0,0,1,375.06,476,50.45,50.45,0,0,1,362.6,486.1,74.66,74.66,0,0,1,348,492.54a96,96,0,0,1-15.85,3.59c-3.26.45-6.51.78-9.72,1Zm-43-12.36H310V485.06l6.11-.08a112,112,0,0,0,14.28-1.1,84.34,84.34,0,0,0,13.8-3.11,61.89,61.89,0,0,0,12.22-5.38,38.4,38.4,0,0,0,9.43-7.6A33.31,33.31,0,0,0,372,457.51a42.59,42.59,0,0,0,.26-26.65,34.87,34.87,0,0,0-13.69-17.78,55.09,55.09,0,0,0-10.87-5.64,62.75,62.75,0,0,0-12.4-3.34A82.13,82.13,0,0,0,322.11,403a159.37,159.37,0,0,0-23.47,1.7,162.45,162.45,0,0,0-18.57,3.91c-.23,6.07-.32,12.14-.27,18.11.06,7.58,0,15.27-.09,22.85q-.19,21.41-.28,42.53Q279.36,510.17,279.34,528.34Zm36.39-62.1c-.88,0-1.5,0-1.79-.06l-5.76-.39V417.62l3.57-1.66c13.27-6.19,28.8-2.74,35.34,7.84h0c7.8,12.61-1.81,27.14-2.93,28.75C335.51,465,321,466.24,315.73,466.24Zm4.81-40.38v27.56c4.25-.76,9.89-2.75,13.46-7.91.07-.1,6.23-9.29,2.57-15.21C334.14,426.37,327.68,424,320.54,425.86Z" transform="translate(-76.1 -304.38)"/><path d="M378.7,535.56l.95-7.63c3.24-25.93,4.11-46.49,2.72-64.7-1.66-21.73-1.18-43.1-.5-64.91l.19-6h60.88l-.71,6.82q-2.13,20.36-4.06,40.65c-1.08,11.33-1.91,22.87-2.47,34.38l2.13,0h8.59c3.41,0,6.76,0,10-.1s6.79-.09,10.28-.09h6.79l-5,53.16Zm15.35-130.87c-.56,19.39-.81,38.45.65,57.6,1.31,17.21.71,36.28-1.88,59.54l64.37-6L460,486.41l-3.26,0c-3.35.06-6.78.1-10.27.1h-8.59c-2.89,0-5.87-.07-8.85-.2l-6.16-.26.25-6.16c.55-13.81,1.49-27.71,2.79-41.32q1.62-17,3.36-33.93Z" transform="translate(-76.1 -304.38)"/><path d="M519.6,538.1,455.36,532l40.13-135.31,60.38-3.06,47.06,137.74-65.83,6.51-5.72-21.72-6.22-.26Zm-48.12-17,38.71,3.7,5.43-21.71L541,504.16l5.36,20.34,39.82-3.94-39-114.15-42.32,2.15Zm69-33.22H511.4L519.8,448l12.09,0Z" transform="translate(-76.1 -304.38)"/><path d="M652.94,543.12H596.08L602,471.88,575.08,400l52-7.43L633.7,432,660,390.42l56,3.74-63.06,87.09Zm-43.42-12.37h31.05V477.24L692.88,405l-26.38-1.76L626.84,466l-9.91-59.49-24.87,3.56,22.51,60Z" transform="translate(-76.1 -304.38)"/></g><path d="M381.06,432.21a44.37,44.37,0,0,1-2.72,16.09,39.13,39.13,0,0,1-7.43,12.25,44.68,44.68,0,0,1-11.09,8.89,69.48,69.48,0,0,1-13.61,5.94,91.49,91.49,0,0,1-15,3.37,121.13,121.13,0,0,1-15.25,1.17v43.6H272.35q0-21.43.09-42.66t.28-42.85q.19-11.42.1-22.83t.46-23a174.8,174.8,0,0,1,24-5.34,168.85,168.85,0,0,1,24.7-1.77,90.91,90.91,0,0,1,14.41,1.16,70.82,70.82,0,0,1,13.8,3.7,61.63,61.63,0,0,1,12.25,6.32,41.31,41.31,0,0,1,16.28,20.95A44.53,44.53,0,0,1,381.06,432.21Zm-41.54,3.18q0-6.09-3.7-9.5a13.59,13.59,0,0,0-9.59-3.41,26.22,26.22,0,0,0-4.06.33c-1.41.21-2.73.48-4,.79l-1.12,27.32a18.5,18.5,0,0,0,2.52.19h2.53a19.12,19.12,0,0,0,6.5-1.13,17.39,17.39,0,0,0,5.57-3.23,16.23,16.23,0,0,0,3.88-4.95A13.93,13.93,0,0,0,339.52,435.39Z" transform="translate(-76.1 -304.38)"/><path d="M468.44,468.88l-3.93,41.54-78.78,6.17q.57-32.64,1.27-64.92t1.73-64.93h48.65q-2.16,20.49-4.12,40.93t-2.81,41.21q4.4.19,8.7.19h8.7q5.25,0,10.29-.1T468.44,468.88Z" transform="translate(-76.1 -304.38)"/><path d="M590.8,514.16l-46.4,6L538.79,499H517.46l-4.68,21.15-47.71-4.68L502.3,390.86l52-2.62Zm-55.38-43.78-7.11-32.56-6.92,32.56Z" transform="translate(-76.1 -304.38)"/><path d="M701.38,395.54l-51.45,71.84L647.5,526H603.15l1.13-58.19-26.76-69.42,47.71-6,7.48,40.42,23.77-40.42Z" transform="translate(-76.1 -304.38)"/><path class="cls-7" d="M381.06,432.21a44.37,44.37,0,0,1-2.72,16.09,39.13,39.13,0,0,1-7.43,12.25,44.68,44.68,0,0,1-11.09,8.89,69.48,69.48,0,0,1-13.61,5.94,91.49,91.49,0,0,1-15,3.37,121.13,121.13,0,0,1-15.25,1.17v43.6H272.35q0-21.43.09-42.66t.28-42.85q.19-11.42.1-22.83t.46-23a174.8,174.8,0,0,1,24-5.34,168.85,168.85,0,0,1,24.7-1.77,90.91,90.91,0,0,1,14.41,1.16,70.82,70.82,0,0,1,13.8,3.7,61.63,61.63,0,0,1,12.25,6.32,41.31,41.31,0,0,1,16.28,20.95A44.53,44.53,0,0,1,381.06,432.21Zm-41.54,3.18q0-6.09-3.7-9.5a13.59,13.59,0,0,0-9.59-3.41,26.22,26.22,0,0,0-4.06.33c-1.41.21-2.73.48-4,.79l-1.12,27.32a18.5,18.5,0,0,0,2.52.19h2.53a19.12,19.12,0,0,0,6.5-1.13,17.39,17.39,0,0,0,5.57-3.23,16.23,16.23,0,0,0,3.88-4.95A13.93,13.93,0,0,0,339.52,435.39Z" transform="translate(-76.1 -304.38)"/><path class="cls-7" d="M468.44,468.88l-3.93,41.54-78.78,6.17q.57-32.64,1.27-64.92t1.73-64.93h48.65q-2.16,20.49-4.12,40.93t-2.81,41.21q4.4.19,8.7.19h8.7q5.25,0,10.29-.1T468.44,468.88Z" transform="translate(-76.1 -304.38)"/><path class="cls-7" d="M590.8,514.16l-46.4,6L538.79,499H517.46l-4.68,21.15-47.71-4.68L502.3,390.86l52-2.62Zm-55.38-43.78-7.11-32.56-6.92,32.56Z" transform="translate(-76.1 -304.38)"/><path class="cls-7" d="M701.38,395.54l-51.45,71.84L647.5,526H603.15l1.13-58.19-26.76-69.42,47.71-6,7.48,40.42,23.77-40.42Z" transform="translate(-76.1 -304.38)"/><path d="M321.44,529H266.85v-5.49q0-21.45.1-42.69t.28-42.87c.12-7.55.15-15.19.09-22.74s.1-15.49.48-23.32L268,388l3.73-1.11a180.41,180.41,0,0,1,24.71-5.5,174.52,174.52,0,0,1,25.5-1.84,96.31,96.31,0,0,1,15.29,1.24,75.66,75.66,0,0,1,14.88,4,67.33,67.33,0,0,1,13.35,6.88,46.94,46.94,0,0,1,18.4,23.68,54.28,54.28,0,0,1-.38,34.93,44.94,44.94,0,0,1-8.48,14,50.57,50.57,0,0,1-12.44,10,75.43,75.43,0,0,1-14.68,6.41A96.83,96.83,0,0,1,332,484.19c-3.54.49-7.05.84-10.51,1Zm-43.6-11h32.61V474.49l5.43-.07a116.33,116.33,0,0,0,14.56-1.11,85.58,85.58,0,0,0,14.11-3.17,64.1,64.1,0,0,0,12.54-5.46,39.89,39.89,0,0,0,9.74-7.81,33.92,33.92,0,0,0,6.39-10.55A43.43,43.43,0,0,0,373.5,419a36,36,0,0,0-14.16-18.24,56.88,56.88,0,0,0-11.17-5.75,64.78,64.78,0,0,0-12.71-3.4,84.74,84.74,0,0,0-13.53-1.1A163.63,163.63,0,0,0,298,392.27a167,167,0,0,0-19.44,4.1c-.24,6.31-.34,12.61-.29,18.76.06,7.64,0,15.37-.1,23q-.18,21.52-.27,42.78Q277.85,499.38,277.84,518Zm44.28-61.42h-2.53a23.64,23.64,0,0,1-3.3-.24l-4.92-.71,1.5-36.38,4-1c1.39-.35,2.89-.65,4.46-.89,7.35-1.14,13.69.28,18.23,4.47,3.63,3.36,5.46,7.91,5.46,13.54a19.41,19.41,0,0,1-2,8.89,21.73,21.73,0,0,1-5.19,6.63,22.9,22.9,0,0,1-7.31,4.24A24.61,24.61,0,0,1,322.12,456.6Zm1.38-28.44-.71,17.44a13.93,13.93,0,0,0,4-.79,11.78,11.78,0,0,0,3.82-2.21,10.62,10.62,0,0,0,2.58-3.3,8.38,8.38,0,0,0,.86-3.91c0-3.3-1.11-4.7-1.94-5.46C330.18,428.16,327.19,427.66,323.5,428.16Z" transform="translate(-76.1 -304.38)"/><path d="M380.14,522.54l.1-6q.57-32.67,1.26-64.95c.47-21.48,1.05-43.34,1.74-65l.17-5.32h60.07l-.64,6.07c-1.41,13.45-2.8,27.2-4.11,40.88-1.12,11.65-2,23.51-2.54,35.35,1,0,2,0,3,0h8.7q5.19,0,10.19-.09t10.39-.09h6l-4.93,52.14Zm13.91-130.3c-.61,19.86-1.13,39.86-1.56,59.55q-.63,29.26-1.16,58.85l68.14-5.34,2.92-30.89c-1.39,0-2.77,0-4.15.06q-5.1.09-10.39.09h-8.7c-2.93,0-5.94-.06-8.93-.19l-5.48-.24.22-5.47c.57-13.88,1.52-27.84,2.83-41.52,1.12-11.65,2.29-23.37,3.49-34.9Z" transform="translate(-76.1 -304.38)"/><path d="M540.33,526.21l-5.77-21.71H521.87l-4.78,21.59-59.2-5.8,40.26-134.73,60.23-3,39.48,136.26Zm-68.09-15.56,36.23,3.55,4.58-20.69h30l5.46,20.57,35.27-4.55L550.25,393.94l-43.8,2.21Zm70-34.78H514.6l8.34-39.19,10.74,0Zm-14.07-11h.43l-.22-1Z" transform="translate(-76.1 -304.38)"/><path d="M652.77,531.44H597.55l1.21-62.71-28.89-75,59.82-7.5,5.75,31,18-30.67,58.1,4.12-56.22,78.5Zm-44-11h33.48l2.28-54.93,46.69-65.2-31.71-2.25L630,448.24l-9.22-49.79-35.6,4.47,24.62,63.87Z" transform="translate(-76.1 -304.38)"/></svg>